<svg id="Layer_1" data-name="Layer 1" xmlns="http://www.w3.org/2000/svg" viewBox="0 0 512 512"><title>pointer-finger-raised-up-outline</title><path d="M186.27,496.46V450.18q-42-37.22-58.87-72.5a173.81,173.81,0,0,1-1.67-19.41q0-17.8,6.69-38.19l-5.35-12-.66-11.26q0-48.29,36.12-48.29c1.11,0,2.89.06,5.35.19q2.67-18.21,11.88-27.33T205,212.31q7,0,16.39,3.56,4-14.23,12.68-21.36t21.69-7.11a33.69,33.69,0,0,1,16.84,4,34.14,34.14,0,0,1,12.18,12.14l2.84-11.65,1.35-116.51q0-37.54,9-56.47T324.73,0q20.73,0,29.09,18.07t8.36,63.57l3,132,12.71,13.27,8.36,89.32q-18.4,61.49-43.15,109.39v69.26A192.85,192.85,0,0,1,262.36,512Q224.3,512,186.27,496.46Zm17.39-11a196.58,196.58,0,0,0,60.7,10,180.64,180.64,0,0,0,62.38-11.33v-58.9q34.11-82.2,42.47-110l-7.35-82.17-48.16-50.2q-13,14.19-13,32.24,0,27.74,29.77,55.15Q313,299.7,313,331.41l.34,5.5L297,336.26l-.67-7.44a113.34,113.34,0,0,1,14.39-55.34q-15.4-19.23-21.74-35.52l-.34,29.37A74.64,74.64,0,0,1,296,284.48a61.57,61.57,0,0,1,2.34,16.5q0,37.23-44.48,59.22l-10-22.65q-7,21.36-38.17,39.16l-9.32-20.07q-15.54,18.13-35.46,26.22l-17.72-40.46q-2.35,16.5-2.34,21.36a81.2,81.2,0,0,0,1.34,11.33q22.87,37.55,61.54,66.67ZM168.87,360.21q9.88-7.11,19.07-21l-20.07-43.37v-31.4q-25.09,0-25.09,30.1l.34,12.62Zm43.62-7.11q17.61-11.32,21.27-37.86l-15.39-33.66.34-47.53q-8-4.91-14.05-4.9-10.37,0-15.72,8T183.59,261l.76,29.28Zm48-15.21q21.4-12.3,21.41-36.9a42.78,42.78,0,0,0-2.59-14.4,63.13,63.13,0,0,0-7.78-14.72V230.31q0-13.19-3.85-19.81a12.52,12.52,0,0,0-11.54-6.6q-10.7,0-16.22,9.67t-5.51,28.67l.33,34.16Zm88.29-140.46L345.8,79q0-63.11-21.41-63.11-9.37,0-14.21,19.57t-4.85,58.75L305,167.65a101,101,0,0,1,8.36-7.77Z" fill="#737277"/></svg>